<svg xmlns="http://www.w3.org/2000/svg" viewBox="0 0 512 512">
  <path
    id="path-green"
    d="M 0 0 L 0 256 A 256 256 0 0 1 256 0 L 0 0 z M 256 0 A 256 256 0 0 1 512 256 L 512 0 L 256 0 z M 512 256 A 256 256 0 0 1 256 512 L 512 512 L 512 256 z M 256 512 A 256 256 0 0 1 0 256 L 0 512 L 256 512 z " />
  <path
    id="path-white"
    fill="#ffffff"
    d="M 456,206.125 H 360.2 L 272.4,74.725002 c -8,-11.8 -25.4,-11.8 -33.2,0 L 151.4,206.125 H 56 c -11,0 -20,9 -20,20 0,1.8 0.2,3.6 0.8,5.4 l 50.8,185.40001 c 4.6,16.79999 20,29.19999 38.4,29.19999 h 260 c 18.4,0 33.8,-12.4 38.6,-29.19999 l 50.8,-185.40001 0.6,-5.4 c 0,-11 -9,-20 -20,-20 z M 255.8,121.92501 312,206.125 H 199.6 Z M 256,366.125 c -22,0 -40,-18 -40,-40 0,-22 18,-40 40,-40 22,0 40,18 40,40 0,22 -18,40 -40,40 z" />
</svg>
